<svg xmlns="http://www.w3.org/2000/svg" xmlns:xlink="http://www.w3.org/1999/xlink" viewBox="0 0 339.51 14.33"><defs><style>.cls-1{fill:none;}.cls-2{clip-path:url(#clip-path);}.cls-3{fill:url(#linear-gradient);}.cls-4{clip-path:url(#clip-path-2);}.cls-5{fill:url(#linear-gradient-2);}.cls-6{fill:url(#linear-gradient-3);}.cls-7{fill:url(#linear-gradient-4);}.cls-8{fill:url(#linear-gradient-6);}.cls-9{fill:url(#linear-gradient-8);}.cls-10{fill:url(#linear-gradient-12);}</style><clipPath id="clip-path" transform="translate(-2.5 -2.79)"><rect class="cls-1" y="0.38" width="41.25" height="19.38"/></clipPath><linearGradient id="linear-gradient" x1="2.5" y1="10.59" x2="109.54" y2="10.59" gradientUnits="userSpaceOnUse"><stop offset="0" stop-color="aqua"/><stop offset="0.27" stop-color="#0071bc"/><stop offset="0.54" stop-color="#39b54a"/><stop offset="0.81" stop-color="#8cc63f"/><stop offset="1" stop-color="red"/></linearGradient><clipPath id="clip-path-2" transform="translate(-2.5 -2.79)"><rect class="cls-1" x="303.25" width="41.25" height="19.38" transform="translate(647.75 19.38) rotate(-180)"/></clipPath><linearGradient id="linear-gradient-2" x1="234.96" y1="10.21" x2="342" y2="10.21" xlink:href="#linear-gradient"/><linearGradient id="linear-gradient-3" x1="-38.15" y1="9.95" x2="463.01" y2="9.95" xlink:href="#linear-gradient"/><linearGradient id="linear-gradient-4" x1="-38.15" y1="10.02" x2="463.01" y2="10.02" xlink:href="#linear-gradient"/><linearGradient id="linear-gradient-6" x1="-38.15" y1="9.68" x2="463.01" y2="9.68" xlink:href="#linear-gradient"/><linearGradient id="linear-gradient-8" x1="-38.15" y1="9.99" x2="463.01" y2="9.99" xlink:href="#linear-gradient"/><linearGradient id="linear-gradient-12" x1="-38.15" y1="9.96" x2="463.01" y2="9.96" xlink:href="#linear-gradient"/></defs><title>Asset 4</title><g id="Layer_2" data-name="Layer 2"><g id="Layer_2-2" data-name="Layer 2"><g class="cls-2"><path class="cls-3" d="M101.25,13.53a27.53,27.53,0,0,1-4.46-2c-2.28-1.57-4.33-1.67-6.56,0a6.45,6.45,0,0,1-8.36,0,5.08,5.08,0,0,0-6.82.06,6.28,6.28,0,0,1-8.09,0c-2.32-1.7-4.46-1.87-6.81-.05a6.28,6.28,0,0,1-8.09.11c-2.43-1.76-4.62-1.9-7.09,0a6.11,6.11,0,0,1-7.82.05c-2.55-1.86-4.79-1.91-7.35.06a6,6,0,0,1-7.56,0c-2.53-1.85-4.77-2.07-7.35-.06-2.37,1.85-5,1.67-7.6.18-1.24-.7-2.64-1.11-3.9-1.79a1.83,1.83,0,0,1-.9-1.36,1.57,1.57,0,0,1,1.27-.92A10.54,10.54,0,0,1,7.5,9.2c2.36,1.63,4.5,1.84,6.84,0a6.24,6.24,0,0,1,8.08-.11c2.44,1.79,4.65,1.88,7.09,0a6.08,6.08,0,0,1,7.81-.06c2.55,1.87,4.82,1.9,7.37,0a5.92,5.92,0,0,1,7.54,0c2.66,2,5,1.91,7.63-.1a5.77,5.77,0,0,1,7.28,0c2.64,1.95,5,2.06,7.63,0a5.92,5.92,0,0,1,7.54.08c2.54,1.87,4.81,1.92,7.36,0S95,7.3,97.49,9.17s4.74,1.86,7.07-.1c.31-.26.7-.62,1.06-.63,1.31,0,2.61.11,3.92.18A27.16,27.16,0,0,1,107,10.48C105.13,11.54,103.22,12.49,101.25,13.53Z" transform="translate(-2.5 -2.79)"/></g><g class="cls-4"><path class="cls-5" d="M243.25,13.15a27.53,27.53,0,0,0,4.46-2c2.28-1.57,4.33-1.67,6.56,0a6.45,6.45,0,0,0,8.36,0,5.08,5.08,0,0,1,6.82.06,6.28,6.28,0,0,0,8.09,0c2.32-1.7,4.46-1.87,6.81-.05a6.28,6.28,0,0,0,8.09.11c2.43-1.76,4.62-1.9,7.09,0a6.11,6.11,0,0,0,7.82.05c2.55-1.86,4.79-1.91,7.35.06a6,6,0,0,0,7.56,0c2.53-1.85,4.77-2.07,7.35-.06,2.37,1.85,5,1.67,7.6.18,1.24-.7,2.64-1.11,3.9-1.79a1.83,1.83,0,0,0,.9-1.36,1.57,1.57,0,0,0-1.27-.92A10.54,10.54,0,0,0,337,8.83c-2.36,1.63-4.5,1.84-6.84,0a6.24,6.24,0,0,0-8.08-.11c-2.44,1.79-4.65,1.88-7.09,0a6.08,6.08,0,0,0-7.81-.06c-2.55,1.87-4.82,1.9-7.37,0a5.92,5.92,0,0,0-7.54,0c-2.66,2-5,1.91-7.63-.1a5.77,5.77,0,0,0-7.28,0c-2.64,1.95-5,2.06-7.63,0a5.92,5.92,0,0,0-7.54.08c-2.54,1.87-4.81,1.92-7.36,0s-5.31-1.73-7.81.13-4.74,1.86-7.07-.1c-.31-.26-.7-.62-1.06-.63-1.31,0-2.61.11-3.92.18a27.16,27.16,0,0,0,2.56,1.86C239.37,11.16,241.28,12.11,243.25,13.15Z" transform="translate(-2.5 -2.79)"/></g><path class="cls-6" d="M59.39,6.6a6.87,6.87,0,0,1,2.47-2.49,6.61,6.61,0,0,1,6.75,0A7,7,0,0,1,71.09,6.6a6.61,6.61,0,0,1,0,6.75,6.91,6.91,0,0,1-2.48,2.46,6.74,6.74,0,0,1-6.76,0,6.79,6.79,0,0,1-2.46-2.46,6.72,6.72,0,0,1,0-6.75Zm2.34,5.49a4.14,4.14,0,0,0,1.49,1.54,4,4,0,0,0,2.1.57,3.79,3.79,0,0,0,2-.57,4,4,0,0,0,1.44-1.53A4.4,4.4,0,0,0,69.31,10a4.37,4.37,0,0,0-.54-2.16,4.11,4.11,0,0,0-1.47-1.54,4,4,0,0,0-4.12,0,4.11,4.11,0,0,0-1.47,1.54A4.37,4.37,0,0,0,61.18,10,4.24,4.24,0,0,0,61.73,12.09Z" transform="translate(-2.5 -2.79)"/><path class="cls-7" d="M87.78,12.89a2.9,2.9,0,0,0,1,.94,2.67,2.67,0,0,0,1.35.36,2.88,2.88,0,0,0,1.42-.36,2.79,2.79,0,0,0,1-.94,2.2,2.2,0,0,0,.37-1.21V3.33h2.57v8.41a4.72,4.72,0,0,1-.72,2.56,5,5,0,0,1-2,1.78,6,6,0,0,1-5.41,0,4.9,4.9,0,0,1-1.94-1.78,4.76,4.76,0,0,1-.71-2.56V3.33H87.4v8.35A2.16,2.16,0,0,0,87.78,12.89Z" transform="translate(-2.5 -2.79)"/><path class="cls-6" d="M116.26,16.58l-2.79-4.21h-1.75v4.21h-2.61V3.33h4A5.6,5.6,0,0,1,117,4.53a4.13,4.13,0,0,1,1.36,3.27,5.23,5.23,0,0,1-.51,2.3,3.8,3.8,0,0,1-1.57,1.68l3.08,4.81Zm-4.54-6.73h1.85a1.84,1.84,0,0,0,1.55-.62,2.13,2.13,0,0,0,.49-1.34,2.54,2.54,0,0,0-.41-1.38,1.75,1.75,0,0,0-1.6-.66h-1.87Z" transform="translate(-2.5 -2.79)"/><path class="cls-8" d="M161.83,2.79V16.58h-2.61V10.26L154.9,16.4h0l-4.16-5.74v5.92h-2.52V2.79h0l6.71,9.52,6.88-9.52Z" transform="translate(-2.5 -2.79)"/><path class="cls-6" d="M178.3,3.33V16.58h-2.61V3.33Z" transform="translate(-2.5 -2.79)"/><path class="cls-9" d="M196.23,5.58a2.28,2.28,0,0,0-1.34.34,1.18,1.18,0,0,0-.48,1,1.35,1.35,0,0,0,.69,1.11A8.64,8.64,0,0,0,197,9a7.65,7.65,0,0,1,1.6.78A3.51,3.51,0,0,1,199.66,11a3.93,3.93,0,0,1,.44,2,3.59,3.59,0,0,1-.53,1.9A3.7,3.7,0,0,1,198,16.21a5.41,5.41,0,0,1-2.45.51,8.17,8.17,0,0,1-2.36-.35A7.36,7.36,0,0,1,191,15.3l1.15-2a6.28,6.28,0,0,0,1.57.83,4.66,4.66,0,0,0,1.58.32,2.84,2.84,0,0,0,1.44-.35,1.22,1.22,0,0,0,.61-1.14q0-1-1.93-1.78a17.23,17.23,0,0,1-1.89-.86,3.89,3.89,0,0,1-1.31-1.19,3.28,3.28,0,0,1-.55-1.94,3.58,3.58,0,0,1,1.13-2.75,4.57,4.57,0,0,1,3-1.13,7.82,7.82,0,0,1,2.47.33,8.44,8.44,0,0,1,1.93.94l-1,2A6.45,6.45,0,0,0,196.23,5.58Z" transform="translate(-2.5 -2.79)"/><path class="cls-9" d="M217.17,5.58a2.28,2.28,0,0,0-1.34.34,1.18,1.18,0,0,0-.48,1A1.35,1.35,0,0,0,216,8.05a8.64,8.64,0,0,0,1.84.91,7.65,7.65,0,0,1,1.6.78A3.51,3.51,0,0,1,220.59,11a3.93,3.93,0,0,1,.44,2,3.59,3.59,0,0,1-.53,1.9,3.7,3.7,0,0,1-1.56,1.39,5.41,5.41,0,0,1-2.45.51,8.17,8.17,0,0,1-2.36-.35A7.36,7.36,0,0,1,212,15.3l1.15-2a6.28,6.28,0,0,0,1.57.83,4.66,4.66,0,0,0,1.58.32,2.84,2.84,0,0,0,1.44-.35,1.22,1.22,0,0,0,.61-1.14q0-1-1.93-1.78a17.23,17.23,0,0,1-1.89-.86,3.89,3.89,0,0,1-1.31-1.19,3.28,3.28,0,0,1-.55-1.94,3.58,3.58,0,0,1,1.13-2.75,4.57,4.57,0,0,1,3-1.13,7.82,7.82,0,0,1,2.47.33,8.44,8.44,0,0,1,1.93.94l-1,2A6.45,6.45,0,0,0,217.17,5.58Z" transform="translate(-2.5 -2.79)"/><path class="cls-6" d="M236.64,3.33V16.58H234V3.33Z" transform="translate(-2.5 -2.79)"/><path class="cls-6" d="M250.6,6.6a6.88,6.88,0,0,1,2.47-2.49,6.61,6.61,0,0,1,6.75,0A7,7,0,0,1,262.3,6.6a6.61,6.61,0,0,1,0,6.75,6.91,6.91,0,0,1-2.48,2.46,6.74,6.74,0,0,1-6.76,0,6.79,6.79,0,0,1-2.46-2.46,6.73,6.73,0,0,1,0-6.75Zm2.34,5.49a4.13,4.13,0,0,0,1.49,1.54,4,4,0,0,0,2.1.57,3.8,3.8,0,0,0,2-.57A4,4,0,0,0,260,12.1a4.4,4.4,0,0,0,.52-2.13A4.38,4.38,0,0,0,260,7.81a4.12,4.12,0,0,0-1.47-1.54,4,4,0,0,0-4.12,0,4.12,4.12,0,0,0-1.47,1.54,4.38,4.38,0,0,0-.54,2.16A4.24,4.24,0,0,0,252.94,12.09Z" transform="translate(-2.5 -2.79)"/><path class="cls-10" d="M288.21,3.33V17.12h-.07l-9.27-8.37.05,7.83h-2.65V2.81h.11l9.25,8.5-.05-8Z" transform="translate(-2.5 -2.79)"/></g></g></svg>