<svg xmlns="http://www.w3.org/2000/svg" xmlns:xlink="http://www.w3.org/1999/xlink" viewBox="0 0 198.22 19.9"><defs><style>.cls-1{fill:url(#linear-gradient);}.cls-2{fill:url(#linear-gradient-2);}.cls-3{fill:url(#linear-gradient-3);}.cls-4{fill:url(#linear-gradient-4);}.cls-5{fill:url(#linear-gradient-5);}.cls-6{fill:url(#linear-gradient-6);}.cls-7{fill:url(#linear-gradient-7);}.cls-8{fill:url(#linear-gradient-8);}.cls-9{fill:url(#linear-gradient-9);}.cls-10{fill:url(#linear-gradient-10);}.cls-11{fill:url(#linear-gradient-11);}.cls-12{fill:url(#linear-gradient-12);}</style><linearGradient id="linear-gradient" x1="-34.84" y1="15.84" x2="271.16" y2="-25.16" gradientUnits="userSpaceOnUse"><stop offset="0" stop-color="aqua"/><stop offset="0.27" stop-color="#0071bc"/><stop offset="0.54" stop-color="#39b54a"/><stop offset="0.81" stop-color="#8cc63f"/><stop offset="1" stop-color="red"/></linearGradient><linearGradient id="linear-gradient-2" x1="-34.53" y1="18.17" x2="271.47" y2="-22.83" xlink:href="#linear-gradient"/><linearGradient id="linear-gradient-3" x1="-34.18" y1="20.76" x2="271.82" y2="-20.24" xlink:href="#linear-gradient"/><linearGradient id="linear-gradient-4" x1="-33.77" y1="23.85" x2="272.23" y2="-17.15" xlink:href="#linear-gradient"/><linearGradient id="linear-gradient-5" x1="-33.11" y1="28.78" x2="272.89" y2="-12.22" xlink:href="#linear-gradient"/><linearGradient id="linear-gradient-6" x1="-33.34" y1="27.08" x2="272.66" y2="-13.92" xlink:href="#linear-gradient"/><linearGradient id="linear-gradient-7" x1="-33" y1="29.56" x2="273" y2="-11.44" xlink:href="#linear-gradient"/><linearGradient id="linear-gradient-8" x1="-32.78" y1="31.23" x2="273.22" y2="-9.77" xlink:href="#linear-gradient"/><linearGradient id="linear-gradient-9" x1="-32.5" y1="33.34" x2="273.5" y2="-7.66" xlink:href="#linear-gradient"/><linearGradient id="linear-gradient-10" x1="-32.29" y1="34.88" x2="273.71" y2="-6.12" xlink:href="#linear-gradient"/><linearGradient id="linear-gradient-11" x1="-32.03" y1="36.83" x2="273.97" y2="-4.17" xlink:href="#linear-gradient"/><linearGradient id="linear-gradient-12" x1="-31.65" y1="39.65" x2="274.35" y2="-1.35" xlink:href="#linear-gradient"/></defs><title>Asset 3</title><g id="Layer_2" data-name="Layer 2"><g id="Layer_2-2" data-name="Layer 2"><path class="cls-1" d="M12.7,18.77a9.35,9.35,0,0,1-3.33.58,9.68,9.68,0,0,1-5-1.25,8.46,8.46,0,0,1-3.25-3.36A9.71,9.71,0,0,1,0,10.1a10.62,10.62,0,0,1,1.13-5A8.3,8.3,0,0,1,4.27,1.76,8.93,8.93,0,0,1,9,.55,10.24,10.24,0,0,1,12,1a10.78,10.78,0,0,1,2.5,1.13L13.13,5.55a6.64,6.64,0,0,0-4-1.5,4.83,4.83,0,0,0-2.62.77,5.61,5.61,0,0,0-2,2.11,6.11,6.11,0,0,0-.73,3A6.82,6.82,0,0,0,4.45,13,5,5,0,0,0,6.38,15.1a5.57,5.57,0,0,0,2.92.75,6.39,6.39,0,0,0,2.43-.44,5.33,5.33,0,0,0,1.7-1l1.5,3.25A8.16,8.16,0,0,1,12.7,18.77Z"/><path class="cls-2" d="M18.69,5.3a9.54,9.54,0,0,1,3.42-3.46,9.18,9.18,0,0,1,9.38,0A9.75,9.75,0,0,1,34.94,5.3a9.18,9.18,0,0,1,0,9.38,9.6,9.6,0,0,1-3.45,3.41,9.36,9.36,0,0,1-9.39,0,9.42,9.42,0,0,1-3.41-3.41A9.11,9.11,0,0,1,17.42,10,9.16,9.16,0,0,1,18.69,5.3Zm3.25,7.63A5.74,5.74,0,0,0,24,15.06a5.55,5.55,0,0,0,2.91.79,5.27,5.27,0,0,0,2.83-.79,5.58,5.58,0,0,0,2-2.12,6.11,6.11,0,0,0,.72-3,6.07,6.07,0,0,0-.75-3,5.7,5.7,0,0,0-2-2.14,5.6,5.6,0,0,0-5.73,0,5.7,5.7,0,0,0-2,2.14,6.07,6.07,0,0,0-.75,3A5.89,5.89,0,0,0,21.94,12.92Z"/><path class="cls-3" d="M58.8,0V19.15H55.17V10.38l-6,8.52h0l-5.78-8v8.23h-3.5V0h0L49.2,13.23,58.75,0Z"/><path class="cls-4" d="M76.1.75v3.5H67.17V8.17h7.9v3.5h-7.9v4h9.28v3.5H63.55V.75Z"/><path class="cls-5" d="M83.87,11.9v3h-4.7v-3Z"/><path class="cls-6" d="M106.8,0V19.15h-3.62V10.38l-6,8.52h0l-5.78-8v8.23h-3.5V0h0L97.2,13.23,106.75,0Z"/><path class="cls-7" d="M115.17.75v18.4h-3.62V.75Z"/><path class="cls-8" d="M123.55.75v14.9h8.65v3.5H119.92V.75Z"/><path class="cls-9" d="M139.57.75v14.9h8.65v3.5H135.95V.75Z"/><path class="cls-10" d="M155.6.75v18.4H152V.75Z"/><path class="cls-11" d="M160.49,5.3a9.54,9.54,0,0,1,3.42-3.46,9.18,9.18,0,0,1,9.38,0,9.75,9.75,0,0,1,3.45,3.46,9.18,9.18,0,0,1,0,9.38,9.6,9.6,0,0,1-3.45,3.41,9.36,9.36,0,0,1-9.39,0,9.42,9.42,0,0,1-3.41-3.41,9.11,9.11,0,0,1-1.26-4.7A9.16,9.16,0,0,1,160.49,5.3Zm3.25,7.63a5.74,5.74,0,0,0,2.08,2.14,5.55,5.55,0,0,0,2.91.79,5.27,5.27,0,0,0,2.83-.79,5.58,5.58,0,0,0,2-2.12,6.11,6.11,0,0,0,.72-3,6.07,6.07,0,0,0-.75-3,5.7,5.7,0,0,0-2-2.14,5.6,5.6,0,0,0-5.73,0,5.7,5.7,0,0,0-2,2.14,6.07,6.07,0,0,0-.75,3A5.89,5.89,0,0,0,163.74,12.92Z"/><path class="cls-12" d="M198.22.75V19.9h-.1L185.25,8.27l.08,10.87h-3.67V0h.15l12.85,11.8L194.57.75Z"/></g></g></svg>