<svg xmlns="http://www.w3.org/2000/svg" xmlns:xlink="http://www.w3.org/1999/xlink" viewBox="0 0 334.51 14.31"><defs><style>.cls-1{fill:none;}.cls-2{fill:url(#linear-gradient);}.cls-3{fill:url(#linear-gradient-2);}.cls-4{fill:url(#linear-gradient-3);}.cls-5{fill:url(#linear-gradient-4);}.cls-6{fill:url(#linear-gradient-5);}.cls-7{fill:url(#linear-gradient-6);}.cls-8{fill:url(#linear-gradient-7);}.cls-9{fill:url(#linear-gradient-8);}.cls-10{fill:url(#linear-gradient-9);}.cls-11{clip-path:url(#clip-path);}.cls-12{fill:url(#linear-gradient-10);}.cls-13{clip-path:url(#clip-path-2);}.cls-14{fill:url(#linear-gradient-11);}</style><linearGradient id="linear-gradient" x1="61.24" y1="11.66" x2="292.24" y2="16.66" gradientUnits="userSpaceOnUse"><stop offset="0" stop-color="aqua"/><stop offset="0.27" stop-color="#0071bc"/><stop offset="0.54" stop-color="#39b54a"/><stop offset="0.81" stop-color="#8cc63f"/><stop offset="1" stop-color="red"/></linearGradient><linearGradient id="linear-gradient-2" x1="61.25" y1="11.16" x2="292.25" y2="16.16" xlink:href="#linear-gradient"/><linearGradient id="linear-gradient-3" x1="61.27" y1="10.61" x2="292.27" y2="15.61" xlink:href="#linear-gradient"/><linearGradient id="linear-gradient-4" x1="61.28" y1="10.07" x2="292.28" y2="15.07" xlink:href="#linear-gradient"/><linearGradient id="linear-gradient-5" x1="61.29" y1="9.45" x2="292.29" y2="14.45" xlink:href="#linear-gradient"/><linearGradient id="linear-gradient-6" x1="61.3" y1="9.14" x2="292.3" y2="14.14" xlink:href="#linear-gradient"/><linearGradient id="linear-gradient-7" x1="61.31" y1="8.66" x2="292.31" y2="13.66" xlink:href="#linear-gradient"/><linearGradient id="linear-gradient-8" x1="61.33" y1="7.87" x2="292.33" y2="12.87" xlink:href="#linear-gradient"/><linearGradient id="linear-gradient-9" x1="61.34" y1="7.4" x2="292.34" y2="12.4" xlink:href="#linear-gradient"/><clipPath id="clip-path" transform="translate(-2.5 -4.81)"><rect class="cls-1" y="0.38" width="41.25" height="19.38"/></clipPath><linearGradient id="linear-gradient-10" x1="2.5" y1="10.59" x2="109.54" y2="10.59" xlink:href="#linear-gradient"/><clipPath id="clip-path-2" transform="translate(-2.5 -4.81)"><rect class="cls-1" x="298.25" width="41.25" height="19.38" transform="translate(637.75 19.38) rotate(-180)"/></clipPath><linearGradient id="linear-gradient-11" x1="229.96" y1="10.21" x2="337" y2="10.21" xlink:href="#linear-gradient"/></defs><title>Asset 6</title><g id="Layer_2" data-name="Layer 2"><g id="Layer_2-2" data-name="Layer 2"><path class="cls-2" d="M77.13,18.31a6.75,6.75,0,0,1-2.39.41,7,7,0,0,1-3.6-.9,6.09,6.09,0,0,1-2.34-2.42A7,7,0,0,1,68,12.06a7.65,7.65,0,0,1,.81-3.56,6,6,0,0,1,2.27-2.44,6.42,6.42,0,0,1,3.37-.87,7.38,7.38,0,0,1,2.23.32,7.77,7.77,0,0,1,1.8.81l-1,2.47a4.77,4.77,0,0,0-2.92-1.08,3.47,3.47,0,0,0-1.89.56,4,4,0,0,0-1.4,1.52,4.4,4.4,0,0,0-.52,2.13,4.91,4.91,0,0,0,.49,2.24,3.6,3.6,0,0,0,1.39,1.5,4,4,0,0,0,2.11.54,4.6,4.6,0,0,0,1.75-.32,3.83,3.83,0,0,0,1.22-.75l1.08,2.34A5.84,5.84,0,0,1,77.13,18.31Z" transform="translate(-2.5 -4.81)"/><path class="cls-3" d="M91.88,8.6a6.88,6.88,0,0,1,2.47-2.49,6.61,6.61,0,0,1,6.75,0,7,7,0,0,1,2.48,2.49,6.61,6.61,0,0,1,0,6.75,6.91,6.91,0,0,1-2.48,2.46,6.74,6.74,0,0,1-6.76,0,6.78,6.78,0,0,1-2.46-2.46,6.72,6.72,0,0,1,0-6.75Zm2.34,5.49a4.13,4.13,0,0,0,1.49,1.54,4,4,0,0,0,2.1.57,3.8,3.8,0,0,0,2-.57,4,4,0,0,0,1.44-1.53,4.6,4.6,0,0,0,0-4.29A4.12,4.12,0,0,0,99.8,8.27a4,4,0,0,0-4.12,0,4.12,4.12,0,0,0-1.47,1.54A4.38,4.38,0,0,0,93.67,12,4.24,4.24,0,0,0,94.22,14.09Z" transform="translate(-2.5 -4.81)"/><path class="cls-4" d="M129.49,5.33V19.12h-.07l-9.27-8.37.05,7.83h-2.65V4.81h.11l9.25,8.5-.05-8Z" transform="translate(-2.5 -4.81)"/><path class="cls-5" d="M151.38,5.33V7.85h-3.22V18.58h-2.61V7.85h-3.1V5.33Z" transform="translate(-2.5 -4.81)"/><path class="cls-6" d="M169.81,16h-4.39l-1.08,2.59h-2.57l6-13.77h.14l6,13.77h-3Zm-.86-2.2-1.28-3.22-1.33,3.22Z" transform="translate(-2.5 -4.81)"/><path class="cls-7" d="M193.66,18.31a6.75,6.75,0,0,1-2.39.41,7,7,0,0,1-3.6-.9,6.09,6.09,0,0,1-2.34-2.42,7,7,0,0,1-.81-3.34,7.65,7.65,0,0,1,.81-3.56,6,6,0,0,1,2.27-2.44A6.43,6.43,0,0,1,191,5.18a7.39,7.39,0,0,1,2.23.32,7.76,7.76,0,0,1,1.8.81l-1,2.47A4.77,4.77,0,0,0,191,7.71a3.47,3.47,0,0,0-1.89.56,4.06,4.06,0,0,0-1.4,1.52,4.41,4.41,0,0,0-.52,2.13,4.92,4.92,0,0,0,.49,2.24,3.6,3.6,0,0,0,1.39,1.5,4,4,0,0,0,2.11.54,4.59,4.59,0,0,0,1.75-.32,3.85,3.85,0,0,0,1.22-.75l1.08,2.34A5.87,5.87,0,0,1,193.66,18.31Z" transform="translate(-2.5 -4.81)"/><path class="cls-8" d="M216.34,5.33V7.85h-3.22V18.58h-2.61V7.85h-3.1V5.33Z" transform="translate(-2.5 -4.81)"/><path class="cls-9" d="M248.3,14.89a2.9,2.9,0,0,0,1,.94,2.68,2.68,0,0,0,1.35.36,2.88,2.88,0,0,0,1.42-.36,2.78,2.78,0,0,0,1-.94,2.2,2.2,0,0,0,.37-1.21V5.33H256v8.41a4.72,4.72,0,0,1-.72,2.57,5,5,0,0,1-2,1.78,6,6,0,0,1-5.41,0A4.89,4.89,0,0,1,246,16.3a4.75,4.75,0,0,1-.71-2.57V5.33h2.61v8.35A2.16,2.16,0,0,0,248.3,14.89Z" transform="translate(-2.5 -4.81)"/><path class="cls-10" d="M273.7,7.58a2.28,2.28,0,0,0-1.34.34,1.18,1.18,0,0,0-.48,1,1.35,1.35,0,0,0,.69,1.11,8.66,8.66,0,0,0,1.84.91,7.62,7.62,0,0,1,1.6.78A3.5,3.5,0,0,1,277.13,13a3.92,3.92,0,0,1,.44,2,3.59,3.59,0,0,1-.53,1.9,3.7,3.7,0,0,1-1.56,1.38,5.41,5.41,0,0,1-2.45.51,8.16,8.16,0,0,1-2.36-.35,7.33,7.33,0,0,1-2.18-1.07l1.15-2a6.26,6.26,0,0,0,1.57.83,4.66,4.66,0,0,0,1.58.32,2.84,2.84,0,0,0,1.44-.35,1.22,1.22,0,0,0,.61-1.14q0-1-1.93-1.78a17.33,17.33,0,0,1-1.89-.86,3.89,3.89,0,0,1-1.31-1.19,3.28,3.28,0,0,1-.55-1.94,3.58,3.58,0,0,1,1.13-2.75,4.57,4.57,0,0,1,3-1.13,7.81,7.81,0,0,1,2.47.33,8.44,8.44,0,0,1,1.93.95l-1,2A6.44,6.44,0,0,0,273.7,7.58Z" transform="translate(-2.5 -4.81)"/><g class="cls-11"><path class="cls-12" d="M101.25,13.53a27.53,27.53,0,0,1-4.46-2c-2.28-1.57-4.33-1.67-6.56,0a6.45,6.45,0,0,1-8.36,0,5.08,5.08,0,0,0-6.82.06,6.28,6.28,0,0,1-8.09,0c-2.32-1.7-4.46-1.87-6.81-.05a6.28,6.28,0,0,1-8.09.11c-2.43-1.76-4.62-1.9-7.09,0a6.11,6.11,0,0,1-7.82.05c-2.55-1.86-4.79-1.91-7.35.06a6,6,0,0,1-7.56,0c-2.53-1.85-4.77-2.07-7.35-.06-2.37,1.85-5,1.67-7.6.18-1.24-.7-2.64-1.11-3.9-1.79a1.83,1.83,0,0,1-.9-1.36,1.57,1.57,0,0,1,1.27-.92A10.54,10.54,0,0,1,7.5,9.2c2.36,1.63,4.5,1.84,6.84,0a6.24,6.24,0,0,1,8.08-.11c2.44,1.79,4.65,1.88,7.09,0a6.08,6.08,0,0,1,7.81-.06c2.55,1.87,4.82,1.9,7.37,0a5.92,5.92,0,0,1,7.54,0c2.66,2,5,1.91,7.63-.1a5.77,5.77,0,0,1,7.28,0c2.64,1.95,5,2.06,7.63,0a5.92,5.92,0,0,1,7.54.08c2.54,1.87,4.81,1.92,7.36,0S95,7.3,97.49,9.17s4.74,1.86,7.07-.1c.31-.26.7-.62,1.06-.63,1.31,0,2.61.11,3.92.18A27.16,27.16,0,0,1,107,10.48C105.13,11.54,103.22,12.49,101.25,13.53Z" transform="translate(-2.5 -4.81)"/></g><g class="cls-13"><path class="cls-14" d="M238.25,13.15a27.53,27.53,0,0,0,4.46-2c2.28-1.57,4.33-1.67,6.56,0a6.45,6.45,0,0,0,8.36,0,5.08,5.08,0,0,1,6.82.06,6.28,6.28,0,0,0,8.09,0c2.32-1.7,4.46-1.87,6.81-.05a6.28,6.28,0,0,0,8.09.11c2.43-1.76,4.62-1.9,7.09,0a6.11,6.11,0,0,0,7.82.05c2.55-1.86,4.79-1.91,7.35.06a6,6,0,0,0,7.56,0c2.53-1.85,4.77-2.07,7.35-.06,2.37,1.85,5,1.67,7.6.18,1.24-.7,2.64-1.11,3.9-1.79a1.83,1.83,0,0,0,.9-1.36,1.57,1.57,0,0,0-1.27-.92A10.54,10.54,0,0,0,332,8.83c-2.36,1.63-4.5,1.84-6.84,0a6.24,6.24,0,0,0-8.08-.11c-2.44,1.79-4.65,1.88-7.09,0a6.08,6.08,0,0,0-7.81-.06c-2.55,1.87-4.82,1.9-7.37,0a5.92,5.92,0,0,0-7.54,0c-2.66,2-5,1.91-7.63-.1a5.77,5.77,0,0,0-7.28,0c-2.64,1.95-5,2.06-7.63,0a5.92,5.92,0,0,0-7.54.08c-2.54,1.87-4.81,1.92-7.36,0s-5.31-1.73-7.81.13-4.74,1.86-7.07-.1c-.31-.26-.7-.62-1.06-.63-1.31,0-2.61.11-3.92.18a27.16,27.16,0,0,0,2.56,1.86C234.37,11.16,236.28,12.11,238.25,13.15Z" transform="translate(-2.5 -4.81)"/></g></g></g></svg>