<svg xmlns="http://www.w3.org/2000/svg" viewBox="0 0 113.73 11.52"><defs><style>.cls-1{fill:#ccc;}</style></defs><title>Asset 9</title><g id="Layer_2" data-name="Layer 2"><g id="Layer_1-2" data-name="Layer 1"><path class="cls-1" d="M2.17,9.82A4.21,4.21,0,0,1,.58,8.27,4.25,4.25,0,0,1,0,6.06,4.33,4.33,0,0,1,.58,3.84,4.14,4.14,0,0,1,2.16,2.29a4.44,4.44,0,0,1,2.21-.56,4.43,4.43,0,0,1,2.2.56A4.14,4.14,0,0,1,8.15,3.84a4.33,4.33,0,0,1,.58,2.22,4.41,4.41,0,0,1-.55,2.21A4,4,0,0,1,6.63,9.82a4.5,4.5,0,0,1-2.26.56A4.39,4.39,0,0,1,2.17,9.82Zm4.06-.52A3.67,3.67,0,0,0,7.58,8a3.63,3.63,0,0,0,.5-1.88,3.73,3.73,0,0,0-.5-1.92A3.65,3.65,0,0,0,6.23,2.81a3.73,3.73,0,0,0-1.88-.49,3.73,3.73,0,0,0-1.87.49A3.59,3.59,0,0,0,1.13,4.15a3.76,3.76,0,0,0-.5,1.92A4,4,0,0,0,1.08,8,3.26,3.26,0,0,0,2.38,9.3a3.93,3.93,0,0,0,2,.48A3.73,3.73,0,0,0,6.23,9.29ZM4.47,8.63a2.45,2.45,0,0,1-1.31-.36,2.52,2.52,0,0,1-.91-1,2.73,2.73,0,0,1,0-2.62A2.56,2.56,0,0,1,4.53,3.4a3,3,0,0,1,.78.11A2,2,0,0,1,6,3.82l-.29.54A1.85,1.85,0,0,0,4.57,4a1.85,1.85,0,0,0-1,.26,2,2,0,0,0-.7.72,2,2,0,0,0-.26,1,1.93,1.93,0,0,0,.54,1.39A1.81,1.81,0,0,0,4.56,8a2,2,0,0,0,1.19-.41l.33.5A2.57,2.57,0,0,1,4.47,8.63Z"/><path class="cls-1" d="M16.91,11.34a3.19,3.19,0,0,1-1.06.18,3.23,3.23,0,0,1-1.6-.4A2.92,2.92,0,0,1,13.14,10a3.07,3.07,0,0,1-.41-1.57,3,3,0,0,1,.41-1.57,3,3,0,0,1,1.12-1.1,3.08,3.08,0,0,1,1.53-.4,3.13,3.13,0,0,1,2.05.69l-.37.48A2.6,2.6,0,0,0,15.84,6a2.31,2.31,0,0,0-1.21.33,2.43,2.43,0,0,0-.87.9,2.48,2.48,0,0,0-.32,1.25,2.44,2.44,0,0,0,.32,1.24,2.43,2.43,0,0,0,2.14,1.22,2.53,2.53,0,0,0,1.54-.53l.39.44A3,3,0,0,1,16.91,11.34Z"/><path class="cls-1" d="M21.14,6.88a3,3,0,0,1,1.13-1.12,3.27,3.27,0,0,1,3.18,0,3,3,0,0,1,1.13,1.13A3.1,3.1,0,0,1,27,8.43,3,3,0,0,1,26.57,10a3.06,3.06,0,0,1-1.12,1.12,3.13,3.13,0,0,1-1.6.41,3.23,3.23,0,0,1-1.6-.4A2.9,2.9,0,0,1,21.13,10a3.14,3.14,0,0,1-.41-1.59A3,3,0,0,1,21.14,6.88Zm.62,2.81a2.4,2.4,0,0,0,.88.9,2.4,2.4,0,0,0,2.43,0,2.4,2.4,0,0,0,.88-.9,2.48,2.48,0,0,0,.32-1.24,2.53,2.53,0,0,0-.32-1.25,2.39,2.39,0,0,0-.88-.91A2.33,2.33,0,0,0,23.85,6a2.24,2.24,0,0,0-1.23.35,2.52,2.52,0,0,0-.87.92,2.53,2.53,0,0,0,0,2.46Z"/><path class="cls-1" d="M39.19,5.85a1.79,1.79,0,0,1,.52,1.28V11.4H39V7.28a1.42,1.42,0,0,0-.35-.9A1.28,1.28,0,0,0,37.72,6a2,2,0,0,0-1.08.3,2.35,2.35,0,0,0-.8.8,2.3,2.3,0,0,0-.34,1.1V11.4H34.8V7.28a1.4,1.4,0,0,0-.36-.9A1.31,1.31,0,0,0,33.49,6a2.12,2.12,0,0,0-1.09.3,2.2,2.2,0,0,0-.81.82,2.26,2.26,0,0,0-.3,1.14V11.4h-.71V5.54h.62l.06,1.29a2.48,2.48,0,0,1,1-1.06,2.78,2.78,0,0,1,1.44-.39,2,2,0,0,1,1.21.38,1.46,1.46,0,0,1,.6,1,2.47,2.47,0,0,1,1-1,2.77,2.77,0,0,1,1.39-.36A1.82,1.82,0,0,1,39.19,5.85Z"/><path class="cls-1" d="M43.9,3a.53.53,0,0,1,.37-.14.51.51,0,0,1,.36.14.47.47,0,0,1,.15.35.48.48,0,0,1-.15.37.5.5,0,0,1-.36.14.51.51,0,0,1-.37-.15.48.48,0,0,1-.16-.36A.45.45,0,0,1,43.9,3Zm.7,2.51V11.4h-.71V5.54Z"/><path class="cls-1" d="M49.47,0V11.4h-.71V0Z"/><path class="cls-1" d="M54.34,0V11.4h-.71V0Z"/><path class="cls-1" d="M58.52,3a.53.53,0,0,1,.37-.14.51.51,0,0,1,.36.14.47.47,0,0,1,.15.35.48.48,0,0,1-.15.37.5.5,0,0,1-.36.14.51.51,0,0,1-.37-.15.48.48,0,0,1-.16-.36A.45.45,0,0,1,58.52,3Zm.7,2.51V11.4h-.71V5.54Z"/><path class="cls-1" d="M63.23,6.88a3,3,0,0,1,1.13-1.12,3.27,3.27,0,0,1,3.18,0,3,3,0,0,1,1.13,1.13,3.1,3.1,0,0,1,.4,1.55A3,3,0,0,1,68.66,10a3.06,3.06,0,0,1-1.12,1.12,3.13,3.13,0,0,1-1.6.41,3.23,3.23,0,0,1-1.6-.4A2.9,2.9,0,0,1,63.22,10a3.14,3.14,0,0,1-.41-1.59A3,3,0,0,1,63.23,6.88Zm.62,2.81a2.4,2.4,0,0,0,.88.9,2.4,2.4,0,0,0,2.43,0,2.4,2.4,0,0,0,.88-.9,2.48,2.48,0,0,0,.32-1.24A2.53,2.53,0,0,0,68,7.19a2.39,2.39,0,0,0-.88-.91A2.33,2.33,0,0,0,65.94,6a2.24,2.24,0,0,0-1.23.35,2.52,2.52,0,0,0-.87.92,2.53,2.53,0,0,0,0,2.46Z"/><path class="cls-1" d="M77.14,5.86a1.77,1.77,0,0,1,.54,1.27V11.4H77V7.32a1.46,1.46,0,0,0-.37-1,1.35,1.35,0,0,0-1-.38,2.18,2.18,0,0,0-1.91,1.09,2.26,2.26,0,0,0-.31,1.18V11.4h-.71V5.54h.62l.06,1.3a2.24,2.24,0,0,1,1-1.07,2.93,2.93,0,0,1,1.51-.4A1.83,1.83,0,0,1,77.14,5.86Z"/><path class="cls-1" d="M87.58,10.7v.71H81.31Q83,9.72,84,8.69a13.83,13.83,0,0,0,1.63-2.12,3.89,3.89,0,0,0,.67-2A2.54,2.54,0,0,0,86,3.19a2,2,0,0,0-.83-.77,2.31,2.31,0,0,0-1-.24,2.15,2.15,0,0,0-1.28.35,2,2,0,0,0-.7.86,2.65,2.65,0,0,0-.21,1,2.32,2.32,0,0,0,.58,1.66l-.45.41a2.3,2.3,0,0,1-.63-.9,3,3,0,0,1-.22-1.16,3.16,3.16,0,0,1,.35-1.49,2.58,2.58,0,0,1,1-1.06,3.2,3.2,0,0,1,1.61-.39A2.73,2.73,0,0,1,86.68,3,3.21,3.21,0,0,1,87,4.48a3.9,3.9,0,0,1-.48,1.81A9.52,9.52,0,0,1,85.39,8q-.7.82-1.84,2l-.62.65Z"/><path class="cls-1" d="M92.08,10.81A4.13,4.13,0,0,1,90.65,9a6.38,6.38,0,0,1-.49-2.54,6.49,6.49,0,0,1,.48-2.57,4,4,0,0,1,1.41-1.76,3.83,3.83,0,0,1,2.22-.64,3.71,3.71,0,0,1,2.19.65A4.1,4.1,0,0,1,97.88,4a6.36,6.36,0,0,1,.49,2.52A6.43,6.43,0,0,1,97.88,9a4.1,4.1,0,0,1-1.42,1.79,4,4,0,0,1-4.39,0ZM96,10.25a3.4,3.4,0,0,0,1.18-1.49,5.64,5.64,0,0,0,.43-2.28,5.54,5.54,0,0,0-.43-2.26A3.42,3.42,0,0,0,96,2.74a3.18,3.18,0,0,0-3.48,0,3.41,3.41,0,0,0-1.18,1.49,5.59,5.59,0,0,0-.43,2.26,5.59,5.59,0,0,0,.43,2.26,3.4,3.4,0,0,0,1.18,1.49,3.18,3.18,0,0,0,3.48,0Z"/><path class="cls-1" d="M103.44,1.61V11.4h-.74V2.31h-1.46V1.61Z"/><path class="cls-1" d="M107.86,6.58a3.06,3.06,0,0,1,1.51-1.06,2.1,2.1,0,0,1-.92-.72,1.82,1.82,0,0,1-.35-1.09,2.12,2.12,0,0,1,.65-1.59,2.33,2.33,0,0,1,1.69-.63,2.49,2.49,0,0,1,1.22.29,2.11,2.11,0,0,1,.83.79,2.18,2.18,0,0,1,.29,1.12,1.88,1.88,0,0,1-.33,1.1,2.14,2.14,0,0,1-.9.73,3.14,3.14,0,0,1,1.55,1.06,2.81,2.81,0,0,1,.62,1.82,2.89,2.89,0,0,1-.44,1.55,3.3,3.3,0,0,1-1.19,1.14,3.24,3.24,0,0,1-1.63.43,3.16,3.16,0,0,1-1.62-.43A3.2,3.2,0,0,1,107.68,10a3,3,0,0,1-.43-1.55A2.86,2.86,0,0,1,107.86,6.58Zm.46,3a2.55,2.55,0,0,0,.89.92,2.32,2.32,0,0,0,1.24.35,2.46,2.46,0,0,0,1.28-.35,2.61,2.61,0,0,0,.93-.92,2.45,2.45,0,0,0,0-2.5,2.53,2.53,0,0,0-.92-.91,2.47,2.47,0,0,0-1.27-.34,2.4,2.4,0,0,0-1.25.34,2.55,2.55,0,0,0-.91.91A2.4,2.4,0,0,0,108,8.37,2.49,2.49,0,0,0,108.31,9.62Zm1-4.79a1.72,1.72,0,0,0,1.18.43,1.62,1.62,0,0,0,1.14-.43,1.38,1.38,0,0,0,.46-1.06,1.66,1.66,0,0,0-.46-1.21,1.54,1.54,0,0,0-1.15-.46,1.63,1.63,0,0,0-1.67,1.68A1.36,1.36,0,0,0,109.3,4.84Z"/></g></g></svg>