<svg xmlns="http://www.w3.org/2000/svg" xmlns:xlink="http://www.w3.org/1999/xlink" viewBox="0 0 28.94 28.94"><defs><style>.cls-1{fill:url(#linear-gradient);}.cls-2{fill:url(#linear-gradient-2);}</style><linearGradient id="linear-gradient" x1="-10.44" y1="32.63" x2="37.56" y2="-2.37" gradientUnits="userSpaceOnUse"><stop offset="0" stop-color="aqua"/><stop offset="0.27" stop-color="#0071bc"/><stop offset="0.54" stop-color="#39b54a"/><stop offset="0.81" stop-color="#8cc63f"/><stop offset="1" stop-color="red"/></linearGradient><linearGradient id="linear-gradient-2" x1="-10.29" y1="32.84" x2="37.71" y2="-2.16" xlink:href="#linear-gradient"/></defs><title>Asset 7</title><g id="Layer_2" data-name="Layer 2"><g id="Layer_1-2" data-name="Layer 1"><path class="cls-1" d="M14.47,0A14.47,14.47,0,1,0,28.94,14.47,14.47,14.47,0,0,0,14.47,0ZM22.8,18.22a6.14,6.14,0,0,1-.39,2A4.28,4.28,0,0,1,20,22.7a6.15,6.15,0,0,1-2,.39c-.89,0-1.18.05-3.45.05s-2.56,0-3.45-.05a6.15,6.15,0,0,1-2-.39,4.28,4.28,0,0,1-2.45-2.45,6.14,6.14,0,0,1-.39-2c0-.89-.05-1.18-.05-3.45s0-2.56.05-3.45a6.14,6.14,0,0,1,.39-2A4.28,4.28,0,0,1,9,6.85a6.14,6.14,0,0,1,2-.39c.89,0,1.18-.05,3.45-.05s2.56,0,3.45.05a6.14,6.14,0,0,1,2,.39,4.28,4.28,0,0,1,2.45,2.45,6.14,6.14,0,0,1,.39,2c0,.89.05,1.18.05,3.45S22.84,17.33,22.8,18.22Z"/><path class="cls-2" d="M21,9.84a2.77,2.77,0,0,0-1.59-1.59A4.63,4.63,0,0,0,17.86,8c-.88,0-1.15,0-3.38,0s-2.5,0-3.38,0a4.63,4.63,0,0,0-1.55.29A2.77,2.77,0,0,0,8,9.84a4.63,4.63,0,0,0-.29,1.55c0,.88,0,1.15,0,3.38s0,2.5,0,3.38A4.63,4.63,0,0,0,8,19.71a2.77,2.77,0,0,0,1.59,1.59,4.63,4.63,0,0,0,1.55.29c.88,0,1.15,0,3.38,0s2.5,0,3.38,0a4.63,4.63,0,0,0,1.55-.29A2.77,2.77,0,0,0,21,19.71a4.63,4.63,0,0,0,.29-1.55c0-.88,0-1.15,0-3.38s0-2.5,0-3.38A4.63,4.63,0,0,0,21,9.84Zm-6.52,9.23a4.3,4.3,0,1,1,4.3-4.3A4.3,4.3,0,0,1,14.48,19.07Zm4.47-7.76a1,1,0,1,1,1-1A1,1,0,0,1,18.95,11.31Z"/><circle class="cls-2" cx="14.48" cy="14.77" r="2.79"/></g></g></svg>