<svg xmlns="http://www.w3.org/2000/svg" xmlns:xlink="http://www.w3.org/1999/xlink" viewBox="0 0 183.69 126.46"><defs><style>.cls-1{fill:#fff;}.cls-2{fill:url(#linear-gradient);}.cls-3{fill:url(#linear-gradient-2);}.cls-4{fill:url(#linear-gradient-3);}.cls-5{fill:url(#linear-gradient-4);}</style><linearGradient id="linear-gradient" x1="-8.89" y1="126.45" x2="253.85" y2="-12.09" gradientUnits="userSpaceOnUse"><stop offset="0" stop-color="aqua"/><stop offset="0.27" stop-color="#0071bc"/><stop offset="0.54" stop-color="#39b54a"/><stop offset="0.81" stop-color="#8cc63f"/><stop offset="1" stop-color="red"/></linearGradient><linearGradient id="linear-gradient-2" x1="-39.41" y1="142.29" x2="284.01" y2="-28.25" xlink:href="#linear-gradient"/><linearGradient id="linear-gradient-3" x1="2.06" y1="118.24" x2="228.15" y2="-0.98" xlink:href="#linear-gradient"/><linearGradient id="linear-gradient-4" x1="9.24" y1="119.52" x2="223.31" y2="6.64" xlink:href="#linear-gradient"/></defs><title>Asset 1</title><g id="Layer_2" data-name="Layer 2"><g id="Layer_2-2" data-name="Layer 2"><path class="cls-1" d="M10.42,72.88c.13,0,.2.07.33.22l1,1.5a.59.59,0,0,1,.11.31.68.68,0,0,1-.28.42,7.44,7.44,0,0,1-4.8,1.72A6.53,6.53,0,0,1,0,70.48a6.64,6.64,0,0,1,7-6.73,7.31,7.31,0,0,1,4.73,1.72.5.5,0,0,1,.22.35.58.58,0,0,1-.13.33l-1.06,1.5a.43.43,0,0,1-.35.24.67.67,0,0,1-.37-.15A5.17,5.17,0,0,0,7,66.69a3.72,3.72,0,0,0,0,7.44A5,5,0,0,0,10,73,.68.68,0,0,1,10.42,72.88Z"/><path class="cls-1" d="M28.7,70.41a6.55,6.55,0,0,1-6.91,6.66A6.5,6.5,0,0,1,15,70.45a6.57,6.57,0,0,1,6.86-6.69A6.52,6.52,0,0,1,28.7,70.41Zm-3.3,0a3.57,3.57,0,1,0-7.13,0,3.47,3.47,0,0,0,3.54,3.7A3.55,3.55,0,0,0,25.4,70.43Z"/><path class="cls-1" d="M35.64,76.83H33.43a.43.43,0,0,1-.48-.48V64.5c0-.44.15-.7.44-.7s.44.17.79.55l5.28,5.72,5.26-5.72c.38-.42.57-.55.79-.55s.44.24.44.7V76.35c0,.31-.13.48-.48.48H43.25a.43.43,0,0,1-.5-.48V70.81l-2.62,3c-.35.37-.49.5-.7.5s-.37-.13-.68-.5l-2.62-3v5.54C36.14,76.7,36,76.83,35.64,76.83Z"/><path class="cls-1" d="M59.59,76.35a.43.43,0,0,1-.49.48H51.37a.43.43,0,0,1-.48-.48V64.47c0-.35.17-.48.48-.48h7.7a.43.43,0,0,1,.49.48v2c0,.35-.15.48-.49.48H54.36c-.22,0-.28.07-.28.28v1.43c0,.22.05.28.28.28h4.11c.35,0,.48.15.48.5v2c0,.31-.13.48-.48.48H54.36c-.22,0-.28.07-.28.28v1.5c0,.2.05.28.28.28h4.73c.35,0,.49.13.49.48Z"/><path class="cls-1" d="M63.92,71.8a.43.43,0,0,1-.48-.48V69.8c0-.35.13-.49.48-.49h5.78c.35,0,.49.15.49.49v1.52a.43.43,0,0,1-.49.48Z"/><path class="cls-1" d="M3.39,93.4H1.17a.43.43,0,0,1-.48-.48V81.07c0-.44.15-.7.44-.7s.44.17.79.55l5.28,5.72,5.26-5.72c.38-.42.57-.55.79-.55s.44.24.44.7V92.92c0,.31-.13.48-.48.48H11a.43.43,0,0,1-.5-.48V87.38l-2.62,3c-.35.37-.49.49-.7.49s-.37-.13-.68-.49l-2.62-3v5.54C3.89,93.27,3.74,93.4,3.39,93.4Z"/><path class="cls-1" d="M19.12,93.4a.43.43,0,0,1-.48-.48V81c0-.35.17-.48.48-.48h2.22c.35,0,.49.13.49.48V92.92c0,.35-.15.48-.49.48Z"/><path class="cls-1" d="M35,90.46c.35,0,.48.13.48.48v2c0,.31-.13.48-.48.48h-7.7a.43.43,0,0,1-.48-.48V81c0-.35.17-.48.48-.48h2.22c.35,0,.49.13.49.48v9.15c0,.2.05.28.28.28Z"/><path class="cls-1" d="M47.65,90.46c.35,0,.48.13.48.48v2c0,.31-.13.48-.48.48H40a.43.43,0,0,1-.48-.48V81c0-.35.17-.48.48-.48h2.22c.35,0,.49.13.49.48v9.15c0,.2.05.28.28.28Z"/><path class="cls-1" d="M52.64,93.4a.43.43,0,0,1-.48-.48V81c0-.35.17-.48.48-.48h2.22c.35,0,.49.13.49.48V92.92c0,.35-.15.48-.49.48Z"/><path class="cls-1" d="M73.34,87a6.55,6.55,0,0,1-6.91,6.66A6.5,6.5,0,0,1,59.61,87a6.87,6.87,0,0,1,13.73,0ZM70,87a3.57,3.57,0,1,0-7.13,0,3.47,3.47,0,0,0,3.54,3.7A3.55,3.55,0,0,0,70,87Z"/><path class="cls-1" d="M88.28,80.56a.43.43,0,0,1,.5.48V92.92q0,.72-.44.72c-.24,0-.49-.16-1-.61l-6.6-6.2v6.09c0,.35-.15.48-.49.48H78.07a.43.43,0,0,1-.48-.48V81q0-.72.44-.71c.24,0,.49.16,1,.6l6.6,6.2V81c0-.35.16-.48.48-.48Z"/><circle class="cls-1" cx="89.05" cy="28.41" r="3.64"/><polygon class="cls-1" points="123.09 4.92 124.16 7.63 125.24 10.34 122.36 9.91 119.47 9.49 121.28 7.2 123.09 4.92"/><polygon class="cls-1" points="132.99 6.37 133.58 9.22 134.17 12.08 131.4 11.16 128.63 10.24 130.81 8.31 132.99 6.37"/><polygon class="cls-1" points="141.64 8.96 142.06 11.84 142.49 14.72 139.78 13.65 137.07 12.58 139.35 10.77 141.64 8.96"/><polygon class="cls-1" points="150.6 13.13 150.88 16.03 151.16 18.93 148.5 17.72 145.85 16.51 148.23 14.82 150.6 13.13"/><polygon class="cls-1" points="178.46 43.86 177.15 46.46 175.84 49.07 174.24 46.63 172.64 44.2 175.55 44.03 178.46 43.86"/><polygon class="cls-1" points="183.59 59.64 181.56 61.74 179.54 63.83 178.74 61.03 177.94 58.23 180.76 58.93 183.59 59.64"/><polygon class="cls-1" points="183.69 77.09 181.22 78.64 178.75 80.19 178.64 77.28 178.53 74.36 181.11 75.73 183.69 77.09"/><polygon class="cls-1" points="180.64 92.46 177.94 93.56 175.23 94.65 175.64 91.76 176.04 88.87 178.34 90.67 180.64 92.46"/><polygon class="cls-1" points="175.52 106.21 172.64 106.65 169.75 107.09 170.81 104.37 171.87 101.66 173.69 103.93 175.52 106.21"/><polygon class="cls-1" points="161.36 21.39 160.97 24.28 160.58 27.17 158.27 25.39 155.97 23.6 158.66 22.5 161.36 21.39"/><polygon class="cls-1" points="170.31 31.21 169.54 34.02 168.77 36.84 166.72 34.76 164.66 32.69 167.49 31.95 170.31 31.21"/><path class="cls-2" d="M116.39,18.93a54.78,54.78,0,0,0-8.73.7s-.41.1-1.08.3V15.2h-4.16V13.76h4.16v-2h-4.16V10.33h4.16v-2h-4.16V6.91h4.16V3a3,3,0,0,0-3.49-3,24.4,24.4,0,0,0-20,17.69,15.43,15.43,0,0,0-4.49,2.4A5.29,5.29,0,0,0,77,21.52a15.48,15.48,0,0,0-3.44,5.35L59.45,40.6a6.91,6.91,0,0,0-1.58,4.91c-.33-.06-.66-.12-1-.16a13,13,0,0,0-4.11.1,19,19,0,0,0-3.91,1.27c-1.24.53-2.44,1.12-3.63,1.53a8.19,8.19,0,0,1-1.75.4,5.88,5.88,0,0,1-1.72-.11,23.19,23.19,0,0,1-3.65-1.1c-1.23-.45-2.48-.95-3.79-1.39-.65-.22-1.33-.42-2-.6-.35-.09-.72-.15-1.08-.23l-.57-.07-.29,0h-.3l-.6,0-.6,0a4.74,4.74,0,0,0-.6.07c-.2,0-.4.06-.59.11a14,14,0,0,0-2.16.69c-1.33.55-2.49,1.12-3.61,1.5a9.44,9.44,0,0,1-3.29.55,10.77,10.77,0,0,1-3.28-.61c-1.14-.37-2.35-.89-3.68-1.37A20.7,20.7,0,0,0,7.29,45a16.42,16.42,0,0,0-4.74.09l-.21,0a2.67,2.67,0,0,0,1.28,5.18,11.23,11.23,0,0,1,3.21-.33,15.81,15.81,0,0,1,3.43.58c1.21.32,2.49.75,3.91,1.09a18.43,18.43,0,0,0,2.24.4,11.09,11.09,0,0,0,1.18.07,9.79,9.79,0,0,0,1.18,0,13.32,13.32,0,0,0,4.48-1.13c1.37-.6,2.54-1.32,3.63-1.87a11,11,0,0,1,1.59-.66c.13,0,.26-.07.39-.1a2.53,2.53,0,0,1,.39-.08l.39-.06.39,0h.41l.42,0c.29,0,.59.06.89.11q.91.15,1.84.38c1.25.31,2.52.69,3.82,1a25,25,0,0,0,4.08.86,7.79,7.79,0,0,0,2.26-.06,9.94,9.94,0,0,0,2.09-.67c1.29-.58,2.43-1.27,3.59-1.88A17.88,17.88,0,0,1,53,46.44,12.14,12.14,0,0,1,56.82,46c.37,0,.75,0,1.12.09a7.17,7.17,0,0,0,.29,1.17H98a.66.66,0,1,1,0,1.32H58.83a7,7,0,0,0,4.06,3.21l.47.81,1,1.77,1-1.77.3-.52h2.46l.3.52,1,1.77,1-1.77.3-.52h2.46l.3.52,1,1.77,1-1.77.3-.52h2.46l.3.52,1,1.77,1-1.77.3-.52h2.46l.3.52,1,1.77,1-1.77.3-.52h2.46l.3.52,1,1.77,1-1.77.3-.52h2.46l.3.52,1,1.77,1-1.77.3-.52h2.45l.31.54,1,1.77,1-1.77.76-1.32a8.6,8.6,0,0,0,2.93-2.24,27.67,27.67,0,0,0,3.41,6.12c14.11,19.72,39.76,26.34,42.91,39,2.09,8.43-5.71,15.46-11.18,19.22l-.16-.19a21.21,21.21,0,0,1-9,4.64A21.61,21.61,0,0,1,111.4,113a22.58,22.58,0,0,1-1.87-1.87,18,18,0,0,1-1.54-2,17.62,17.62,0,0,1-1.22-2.24,18.33,18.33,0,0,1-.87-2.41,17.3,17.3,0,0,1,.32-10.21,16,16,0,0,1,1-2.4,16.33,16.33,0,0,1,1.39-2.23,16.62,16.62,0,0,1,1.72-2q.23-.24.48-.46c.16-.15.32-.31.49-.44l1-.79a13.63,13.63,0,0,1,4.63-2.11A13.85,13.85,0,0,1,127,85.16c.19.11.39.2.57.32l.54.37c.18.13.37.24.54.37l.5.43.51.42.46.48.46.48a5.38,5.38,0,0,1,.41.5l.4.5.34.54a9.24,9.24,0,0,1,.61,1.12,4.17,4.17,0,0,1,.25.59l.23.6.17.62a4.6,4.6,0,0,1,.15.63,11.29,11.29,0,0,1-.17,5.15c-.93,3.33-3.52,6.4-6.84,7.28a10,10,0,0,1-1.27.26,10.1,10.1,0,0,1-1.3.05,4.28,4.28,0,0,1-.65,0l-.65-.08-.64-.14c-.22,0-.42-.13-.63-.19a8.39,8.39,0,0,1-2.34-1.17l-.27-.19-.25-.21c-.17-.15-.34-.28-.5-.43a9.69,9.69,0,0,1-.88-1,7,7,0,0,1-1.41-4.85A7,7,0,0,1,117.63,93a5.49,5.49,0,0,1,2.21-1.3,5.68,5.68,0,0,1,5,.82,5.47,5.47,0,0,1,.52.42c.17.15.31.32.47.47a4.8,4.8,0,0,1,.7,1.08,4.58,4.58,0,0,1-.71,4.93,1.83,1.83,0,0,1-.23.24l-.24.23-.25.2-.27.18a3.65,3.65,0,0,1-1.22.44,3.71,3.71,0,0,1-2.55-.48,3.81,3.81,0,0,1-1-.89,2.84,2.84,0,0,1-.54-1.18,3,3,0,0,1,.63-2.5,2.48,2.48,0,0,1,1.06-.77,2.34,2.34,0,0,1,1.31-.1,2.2,2.2,0,0,1,1.77,1.79,2,2,0,0,1-.3,1.29,1.64,1.64,0,0,1-1.08.75,1.55,1.55,0,0,1-1.28-.34,1.27,1.27,0,0,1-.47-1.22,1.18,1.18,0,0,1,.89-1,1,1,0,0,1,1.13.63.85.85,0,0,1-.08.69.72.72,0,0,1-.59.36.68.68,0,0,1-.61-.34.57.57,0,0,1,.13-.69.58.58,0,0,0-.16.7.73.73,0,0,0,.64.4.81.81,0,0,0,.68-.38,1,1,0,0,0,.13-.78,1.17,1.17,0,0,0-1.3-.79A1.42,1.42,0,0,0,120.91,97a1.58,1.58,0,0,0,.51,1.53A1.93,1.93,0,0,0,123,99a2.08,2.08,0,0,0,1.41-.89,2.46,2.46,0,0,0,.45-1.62,2.53,2.53,0,0,0-.7-1.54,3.08,3.08,0,0,0-3.17-.81,3.28,3.28,0,0,0-1.43.94,3.87,3.87,0,0,0-.31,4.82,4.79,4.79,0,0,0,4.55,2,4.92,4.92,0,0,0,1.67-.53l.38-.22.36-.26.33-.28a2.74,2.74,0,0,0,.31-.3,6,6,0,0,0,1.56-3.05,6.14,6.14,0,0,0-.35-3.45,6.47,6.47,0,0,0-.9-1.52c-.19-.21-.37-.44-.58-.64a7.28,7.28,0,0,0-.65-.57,7.68,7.68,0,0,0-3.14-1.46,7.86,7.86,0,0,0-3.49.09,7.62,7.62,0,0,0-3.11,1.64A9.43,9.43,0,0,0,114,94a9.54,9.54,0,0,0-1.07,3.32,9.64,9.64,0,0,0,1.65,6.73,12.35,12.35,0,0,0,1.11,1.35c.2.21.42.4.63.6l.32.29.35.26a11.33,11.33,0,0,0,3,1.7c.28.09.55.22.83.29l.85.22c.29.06.58.1.87.15a6.73,6.73,0,0,0,.88.09,11.05,11.05,0,0,0,3.51-.27,12.43,12.43,0,0,0,4.79-2.28c.23-.18.44-.38.66-.57s.44-.37.64-.59a14.92,14.92,0,0,0,4.18-12.9,14.93,14.93,0,0,0-2.71-6.53,8.78,8.78,0,0,0-.54-.71l-.57-.65c-.19-.22-.38-.44-.58-.65l-.64-.59-.64-.59c-.22-.19-.46-.36-.69-.53l-.7-.53c-.23-.18-.49-.31-.74-.47a18.65,18.65,0,0,0-6.52-2.53,18.9,18.9,0,0,0-13.63,2.7l-1.46,1c-.24.18-.45.37-.67.55s-.44.38-.65.58a23.11,23.11,0,0,0-4.38,5.43,22,22,0,0,0-1.53,3.16,23.61,23.61,0,0,0-1,13.91,25,25,0,0,0,1.06,3.41,24.38,24.38,0,0,0,1.57,3.22,24.9,24.9,0,0,0,2,2.95,29.6,29.6,0,0,0,2.34,2.58,29,29,0,0,0,12,7.07,29.51,29.51,0,0,0,14,.71,30.49,30.49,0,0,0,4.5-1.24l0,.16c24.3-11,33.7-29.84,33.7-51.54A54.38,54.38,0,0,0,116.39,18.93ZM98,24.32l1.29.16-.79,1-.79,1-.5-1.2-.5-1.2ZM100.51,28l-.95.89-.95.89-.3-1.27L98,27.29l1.24.38Zm-5.12-6.82L96.66,21l-.4,1.24-.4,1.24-.87-1-.87-1ZM87.45,40.94A10.17,10.17,0,1,1,97.62,30.77,10.17,10.17,0,0,1,87.45,40.94Zm11-4.27-1.28.24.44-1.23L98,34.45l.84,1,.84,1Zm1-3.49-1.2.5.17-1.29.17-1.29,1,.79,1,.79Zm35.21,16.09-5.67,6-1.79,1.9-.73-.77-6.69-7.09a5.18,5.18,0,0,1-1.41-2.76,4.76,4.76,0,0,1,3.72-5.46,5,5,0,0,1,3.88.75,6.77,6.77,0,0,1,.75.66c.16.16.31.33.49.51l.43-.46a4.87,4.87,0,0,1,8.4,2.52A4.85,4.85,0,0,1,134.64,49.26Z"/><path class="cls-3" d="M102.85,71.64a3,3,0,0,1-.66-5.88l16.22-3.56-5-7.8a3,3,0,0,1,5-3.21l7.28,11.37a3,3,0,0,1-1.85,4.51l-20.35,4.5A3,3,0,0,1,102.85,71.64Z"/><path class="cls-4" d="M94,65.7l7.5,5,1.71-4-8.8-1.93A.52.52,0,0,0,94,65.7Z"/><path class="cls-5" d="M96.59,76.38l7.38-5-3.09-3.09-5,7.38A.52.52,0,0,0,96.59,76.38Z"/></g></g></svg>